<?xml version="1.0" encoding="utf-8"?><svg version="1.1" id="Layer_1" xmlns="http://www.w3.org/2000/svg" xmlns:xlink="http://www.w3.org/1999/xlink" x="0px" y="0px" viewBox="0 0 110.8 122.88" style="enable-background:new 0 0 110.8 122.88" xml:space="preserve"><style type="text/css"><![CDATA[
	.st0{fill-rule:evenodd;clip-rule:evenodd;}
]]></style><g><path class="st0" d="M86.14,91.26l3.8-19.27l3.84,5.79c8.28-3.33,12.92-8.8,13.62-17.23c6.8,11.89,2.67,22.55-5.94,28.79l3.92,5.9 L86.14,91.26L86.14,91.26L86.14,91.26L86.14,91.26L86.14,91.26z M68.93,92.38c4.21,0,8.02,1.71,10.78,4.47 c2.76,2.76,4.47,6.57,4.47,10.78c0,4.21-1.71,8.02-4.47,10.78c-2.76,2.76-6.57,4.47-10.78,4.47c-4.21,0-8.03-1.71-10.78-4.47 c-2.76-2.76-4.47-6.57-4.47-10.78c0-4.21,1.71-8.03,4.47-10.78C60.91,94.09,64.72,92.38,68.93,92.38L68.93,92.38z M75.03,102.99 l-3.94,0.62c-0.2-0.5-0.38-0.84-0.53-1.03c-0.16-0.19-0.42-0.39-0.79-0.58v3.06c2.14,0.57,3.57,1.18,4.29,1.81 c0.95,0.86,1.42,1.93,1.42,3.25c0,0.77-0.17,1.47-0.51,2.11c-0.34,0.64-0.78,1.18-1.31,1.61c-0.53,0.43-1.1,0.74-1.7,0.93 c-0.6,0.2-1.33,0.31-2.2,0.34v1.99h-1.54v-1.99c-1.04-0.09-1.88-0.26-2.52-0.5c-0.64-0.24-1.2-0.58-1.67-1.01 c-0.46-0.43-0.83-0.89-1.08-1.38c-0.25-0.49-0.44-1.09-0.57-1.79l4.26-0.5c0.13,0.69,0.3,1.2,0.51,1.5 c0.21,0.31,0.57,0.58,1.07,0.82v-3.74c-1.43-0.39-2.44-0.74-3.03-1.02c-0.6-0.29-1.11-0.76-1.55-1.39 c-0.44-0.64-0.66-1.41-0.66-2.33c0-1.26,0.44-2.3,1.32-3.15c0.88-0.84,2.19-1.31,3.92-1.4v-1.04h1.54v1.04 c1.58,0.1,2.79,0.47,3.62,1.12C74.22,100.97,74.77,101.86,75.03,102.99L75.03,102.99L75.03,102.99z M68.23,101.94 c-0.46,0.15-0.77,0.33-0.95,0.55c-0.18,0.22-0.27,0.48-0.27,0.77c0,0.31,0.09,0.57,0.27,0.8c0.18,0.23,0.5,0.42,0.94,0.58 L68.23,101.94L68.23,101.94L68.23,101.94z M69.77,112.35c0.6-0.13,1.03-0.36,1.31-0.66c0.28-0.3,0.42-0.65,0.42-1.03 c0-0.33-0.12-0.64-0.35-0.92c-0.23-0.28-0.7-0.54-1.38-0.77L69.77,112.35L69.77,112.35L69.77,112.35z M42.36,0 c4.21,0,8.02,1.71,10.78,4.47c2.76,2.76,4.47,6.57,4.47,10.78c0,4.21-1.71,8.02-4.47,10.78c-2.76,2.76-6.57,4.47-10.78,4.47 c-4.21,0-8.02-1.71-10.78-4.47c-2.76-2.76-4.47-6.57-4.47-10.78c0-4.21,1.71-8.02,4.47-10.78C34.34,1.71,38.15,0,42.36,0L42.36,0z M41.74,14.06h3.21v2.53h-2.84c-0.04,0.6-0.15,1.13-0.33,1.61c-0.15,0.36-0.39,0.74-0.74,1.13c0.39-0.09,0.73-0.13,1.01-0.13 c0.36,0,0.83,0.07,1.41,0.21c0.79,0.18,1.42,0.27,1.89,0.27c0.39,0,0.72-0.03,1.01-0.1c0.29-0.06,0.66-0.2,1.12-0.41l1.44,3.16 c-0.7,0.35-1.31,0.59-1.84,0.72c-0.53,0.13-1.09,0.2-1.7,0.2c-0.66,0-1.42-0.11-2.27-0.35c-1.12-0.31-1.81-0.48-2.08-0.53 c-0.27-0.05-0.56-0.07-0.87-0.07c-0.91,0-1.91,0.32-3.01,0.95l-1.37-3.01c1.48-1.06,2.23-2.12,2.23-3.18 c0-0.06-0.01-0.21-0.02-0.48h-2.21v-2.53h1.58c-0.27-0.93-0.42-1.47-0.46-1.62c-0.04-0.22-0.06-0.5-0.06-0.83 c0-0.88,0.23-1.67,0.71-2.37c0.46-0.7,1.08-1.21,1.85-1.52c0.76-0.32,1.79-0.48,3.09-0.48c1.21,0,2.17,0.14,2.88,0.41 c0.71,0.27,1.31,0.72,1.79,1.35c0.49,0.63,0.82,1.39,1.01,2.29l-4.04,0.63c-0.2-0.75-0.44-1.25-0.7-1.49 c-0.26-0.25-0.56-0.37-0.9-0.37c-0.41,0-0.74,0.13-0.99,0.4c-0.25,0.27-0.38,0.65-0.38,1.13c0,0.26,0.03,0.51,0.08,0.76 C41.28,12.59,41.45,13.16,41.74,14.06L41.74,14.06L41.74,14.06z M13.21,74.98l54.57-54.57l28.37,28.37l-54.57,54.57L13.21,74.98 L13.21,74.98L13.21,74.98z M46.35,53.53c4.61-4.62,12.08-4.62,16.7,0c4.62,4.62,4.62,12.08,0,16.7c-4.62,4.62-12.08,4.62-16.7,0 C41.73,65.61,41.73,58.14,46.35,53.53L46.35,53.53L46.35,53.53z M26.65,70.18l36.28-36.28c2.31,2.31,6.08,2.31,8.38,0l11.22,11.21 c-2.31,2.31-2.31,6.08,0,8.38L46.25,89.78c-2.31-2.31-6.07-2.31-8.38,0L26.65,78.56C28.96,76.25,28.96,72.49,26.65,70.18 L26.65,70.18L26.65,70.18L26.65,70.18z M24.66,37.84l-3.8,19.27l-3.84-5.8C8.74,54.64,4.1,60.12,3.4,68.55 c-6.8-11.89-2.67-22.54,5.94-28.79l-3.91-5.9L24.66,37.84L24.66,37.84L24.66,37.84L24.66,37.84L24.66,37.84z"/></g></svg>